<svg xmlns="http://www.w3.org/2000/svg" xmlns:xlink="http://www.w3.org/1999/xlink" width="1500" zoomAndPan="magnify" viewBox="0 0 1125 314.999992" height="420" preserveAspectRatio="xMidYMid meet" version="1.0"><defs><g/><clipPath id="2501c8a7e1"><path d="M 40.261719 21.253906 L 327.914062 21.253906 L 327.914062 235 L 40.261719 235 Z M 40.261719 21.253906 " clip-rule="nonzero"/></clipPath><clipPath id="01eb94d20c"><path d="M 326.214844 21.753906 L 273.679688 50.179688 L 284.378906 56.488281 L 208.921875 188.605469 L 194.960938 88.714844 C 192.324219 75.667969 185.03125 67.296875 185.03125 67.296875 C 156.210938 39.15625 128.015625 82.65625 128.015625 82.65625 L 40.761719 234.988281 L 85.839844 234.988281 L 119.824219 171.578125 C 119.539062 166.09375 120.917969 160.445312 124.109375 155.425781 C 126.492188 151.679688 129.628906 148.722656 133.195312 146.628906 L 158.914062 101.601562 L 165.726562 150.855469 C 173.378906 158.886719 175.226562 171.21875 169.972656 181.542969 L 173.09375 204.144531 C 175.460938 222.335938 192.863281 231.296875 192.863281 231.296875 C 221.59375 244.472656 238.925781 211.851562 238.925781 211.851562 L 315.171875 74.199219 L 327.539062 80.003906 Z M 326.214844 21.753906 " clip-rule="nonzero"/></clipPath><clipPath id="f6ce765340"><path d="M 132.386719 153 L 161 153 L 161 182 L 132.386719 182 Z M 132.386719 153 " clip-rule="nonzero"/></clipPath><clipPath id="8ab319450a"><path d="M 160.601562 167.652344 C 160.601562 175.394531 154.328125 181.648438 146.601562 181.648438 C 138.878906 181.648438 132.605469 175.375 132.605469 167.652344 C 132.605469 159.925781 138.878906 153.652344 146.601562 153.652344 C 154.328125 153.652344 160.601562 159.925781 160.601562 167.652344 " clip-rule="nonzero"/></clipPath></defs><g clip-path="url(#2501c8a7e1)"><g clip-path="url(#01eb94d20c)"><path fill="#0086ff" d="M 31.800781 12.792969 L 336.375 12.792969 L 336.375 253.441406 L 31.800781 253.441406 Z M 31.800781 12.792969 " fill-opacity="1" fill-rule="nonzero"/></g></g><g clip-path="url(#f6ce765340)"><g clip-path="url(#8ab319450a)"><path fill="#0086ff" d="M 31.800781 12.792969 L 336.375 12.792969 L 336.375 253.441406 L 31.800781 253.441406 Z M 31.800781 12.792969 " fill-opacity="1" fill-rule="nonzero"/></g></g><g fill="#0086ff" fill-opacity="1"><g transform="translate(272.108374, 225.655269)"><g><path d="M 42.875 1.140625 C 31.882812 1.140625 22.945312 -2.25 16.0625 -9.03125 C 9.175781 -15.820312 5.734375 -24.472656 5.734375 -34.984375 C 5.734375 -45.503906 9.175781 -54.15625 16.0625 -60.9375 C 22.945312 -67.726562 31.882812 -71.125 42.875 -71.125 C 53.769531 -71.125 62.707031 -67.773438 69.6875 -61.078125 C 76.664062 -54.390625 80.15625 -45.691406 80.15625 -34.984375 C 80.15625 -24.273438 76.664062 -15.578125 69.6875 -8.890625 C 62.707031 -2.203125 53.769531 1.140625 42.875 1.140625 Z M 42.875 -15.625 C 48.03125 -15.625 52.351562 -17.441406 55.84375 -21.078125 C 59.332031 -24.710938 61.078125 -29.347656 61.078125 -34.984375 C 61.078125 -40.722656 59.359375 -45.382812 55.921875 -48.96875 C 52.484375 -52.550781 48.132812 -54.34375 42.875 -54.34375 C 37.519531 -54.34375 33.144531 -52.5 29.75 -48.8125 C 26.351562 -45.132812 24.65625 -40.523438 24.65625 -34.984375 C 24.65625 -29.535156 26.375 -24.945312 29.8125 -21.21875 C 33.257812 -17.488281 37.613281 -15.625 42.875 -15.625 Z M 42.875 -15.625 "/></g></g></g><g fill="#0086ff" fill-opacity="1"><g transform="translate(357.848958, 225.655269)"><g><path d="M 50.90625 -71.125 C 67.914062 -71.125 76.421875 -61.273438 76.421875 -41.578125 L 76.421875 0 L 57.640625 0 L 57.640625 -36.84375 C 57.640625 -43.25 56.539062 -47.765625 54.34375 -50.390625 C 52.144531 -53.023438 48.753906 -54.34375 44.171875 -54.34375 C 39.285156 -54.34375 35.410156 -52.691406 32.546875 -49.390625 C 29.679688 -46.097656 28.25 -41.394531 28.25 -35.28125 L 28.25 0 L 9.46875 0 L 9.46875 -69.96875 L 28.25 -69.96875 L 28.25 -60.9375 L 28.53125 -60.9375 C 34.269531 -67.726562 41.726562 -71.125 50.90625 -71.125 Z M 50.90625 -71.125 "/></g></g></g><g fill="#000000" fill-opacity="1"><g transform="translate(442.733363, 225.655269)"><g><path d="M 76.71875 0 L 69.828125 -20.359375 L 30.6875 -20.359375 L 23.796875 0 L 2.71875 0 L 40.4375 -101.8125 L 59.796875 -101.8125 L 97.796875 0 Z M 36.5625 -37.5625 L 63.953125 -37.5625 L 50.328125 -77.578125 L 50.046875 -77.578125 Z M 36.5625 -37.5625 "/></g></g></g><g fill="#000000" fill-opacity="1"><g transform="translate(542.811836, 225.655269)"><g><path d="M 41.734375 1.140625 C 31.210938 1.140625 22.582031 -2.203125 15.84375 -8.890625 C 9.101562 -15.578125 5.734375 -24.273438 5.734375 -34.984375 C 5.734375 -45.691406 9.148438 -54.390625 15.984375 -61.078125 C 22.816406 -67.773438 31.6875 -71.125 42.59375 -71.125 C 48.414062 -71.125 53.957031 -69.972656 59.21875 -67.671875 C 64.476562 -65.378906 68.828125 -62.082031 72.265625 -57.78125 L 59.65625 -46.890625 C 55.351562 -51.859375 49.898438 -54.34375 43.296875 -54.34375 C 37.753906 -54.34375 33.257812 -52.550781 29.8125 -48.96875 C 26.375 -45.382812 24.65625 -40.769531 24.65625 -35.125 C 24.65625 -29.394531 26.398438 -24.710938 29.890625 -21.078125 C 33.378906 -17.441406 37.898438 -15.625 43.453125 -15.625 C 50.140625 -15.625 55.585938 -18.015625 59.796875 -22.796875 L 72.5625 -11.46875 C 69.3125 -7.738281 65.03125 -4.703125 59.71875 -2.359375 C 54.414062 -0.0234375 48.421875 1.140625 41.734375 1.140625 Z M 41.734375 1.140625 "/></g></g></g><g fill="#000000" fill-opacity="1"><g transform="translate(618.946032, 225.655269)"><g><path d="M 59.5 -69.96875 L 78.140625 -69.96875 L 78.140625 0 L 60.375 0 L 60.375 -8.453125 L 59.9375 -8.453125 C 55.0625 -2.054688 48.082031 1.140625 39 1.140625 C 29.25 1.140625 21.242188 -2.175781 14.984375 -8.8125 C 8.722656 -15.457031 5.59375 -24.132812 5.59375 -34.84375 C 5.59375 -45.351562 8.722656 -54.023438 14.984375 -60.859375 C 21.242188 -67.703125 29.109375 -71.125 38.578125 -71.125 C 47.273438 -71.125 54.109375 -68.113281 59.078125 -62.09375 L 59.5 -62.09375 Z M 42.4375 -15.625 C 47.414062 -15.625 51.625 -17.390625 55.0625 -20.921875 C 58.5 -24.460938 60.21875 -29.050781 60.21875 -34.6875 C 60.21875 -40.332031 58.546875 -45.019531 55.203125 -48.75 C 51.859375 -52.476562 47.65625 -54.34375 42.59375 -54.34375 C 37.425781 -54.34375 33.117188 -52.550781 29.671875 -48.96875 C 26.234375 -45.382812 24.515625 -40.628906 24.515625 -34.703125 C 24.515625 -29.054688 26.1875 -24.460938 29.53125 -20.921875 C 32.882812 -17.390625 37.1875 -15.625 42.4375 -15.625 Z M 42.4375 -15.625 "/></g></g></g><g fill="#000000" fill-opacity="1"><g transform="translate(705.977028, 225.655269)"><g><path d="M 60.078125 -105.53125 L 78.859375 -105.53125 L 78.859375 0 L 60.9375 0 L 60.9375 -8.453125 L 60.65625 -8.453125 C 55.582031 -2.054688 48.410156 1.140625 39.140625 1.140625 C 29.390625 1.140625 21.359375 -2.175781 15.046875 -8.8125 C 8.742188 -15.457031 5.59375 -24.132812 5.59375 -34.84375 C 5.59375 -45.351562 8.722656 -54.023438 14.984375 -60.859375 C 21.242188 -67.703125 29.109375 -71.125 38.578125 -71.125 C 47.460938 -71.125 54.488281 -68.113281 59.65625 -62.09375 L 60.078125 -62.09375 Z M 29.671875 -20.921875 C 33.023438 -17.390625 37.328125 -15.625 42.578125 -15.625 C 47.835938 -15.625 52.234375 -17.390625 55.765625 -20.921875 C 59.304688 -24.460938 61.078125 -29.050781 61.078125 -34.6875 C 61.078125 -40.332031 59.332031 -45.019531 55.84375 -48.75 C 52.351562 -52.476562 47.9375 -54.34375 42.59375 -54.34375 C 37.425781 -54.34375 33.144531 -52.550781 29.75 -48.96875 C 26.351562 -45.382812 24.65625 -40.628906 24.65625 -34.703125 C 24.65625 -29.054688 26.328125 -24.460938 29.671875 -20.921875 Z M 29.671875 -20.921875 "/></g></g></g><g fill="#000000" fill-opacity="1"><g transform="translate(794.298449, 225.655269)"><g><path d="M 74.703125 -35.703125 C 74.703125 -31.972656 74.5625 -29.726562 74.28125 -28.96875 L 25.09375 -28.96875 C 26.238281 -24.757812 28.390625 -21.457031 31.546875 -19.0625 C 34.703125 -16.675781 38.523438 -15.484375 43.015625 -15.484375 C 49.804688 -15.390625 55.398438 -18.019531 59.796875 -23.375 L 71.984375 -12.046875 C 65.003906 -3.253906 54.921875 1.140625 41.734375 1.140625 C 31.304688 1.140625 22.695312 -2.203125 15.90625 -8.890625 C 9.125 -15.578125 5.734375 -24.320312 5.734375 -35.125 C 5.734375 -45.644531 9.003906 -54.273438 15.546875 -61.015625 C 22.097656 -67.753906 30.394531 -71.125 40.4375 -71.125 C 50.570312 -71.125 58.816406 -67.800781 65.171875 -61.15625 C 71.523438 -54.507812 74.703125 -46.023438 74.703125 -35.703125 Z M 41.015625 -54.625 C 37.085938 -54.625 33.738281 -53.570312 30.96875 -51.46875 C 28.195312 -49.375 26.285156 -46.363281 25.234375 -42.4375 L 56.0625 -42.4375 C 53.957031 -50.5625 48.941406 -54.625 41.015625 -54.625 Z M 41.015625 -54.625 "/></g></g></g><g fill="#000000" fill-opacity="1"><g transform="translate(874.590649, 225.655269)"><g><path d="M 94.78125 -71.125 C 111.21875 -71.125 119.4375 -60.988281 119.4375 -40.71875 L 119.4375 0 L 100.65625 0 L 100.65625 -36.140625 C 100.65625 -48.273438 96.59375 -54.34375 88.46875 -54.34375 C 84.363281 -54.34375 80.945312 -52.644531 78.21875 -49.25 C 75.5 -45.863281 74.140625 -41.109375 74.140625 -34.984375 L 74.140625 0 L 55.34375 0 L 55.34375 -36.140625 C 55.34375 -48.273438 51.234375 -54.34375 43.015625 -54.34375 C 38.617188 -54.34375 35.054688 -52.644531 32.328125 -49.25 C 29.609375 -45.863281 28.25 -41.109375 28.25 -34.984375 L 28.25 0 L 9.46875 0 L 9.46875 -69.96875 L 28.25 -69.96875 L 28.25 -60.65625 L 28.390625 -60.65625 C 33.929688 -67.632812 40.910156 -71.125 49.328125 -71.125 C 59.078125 -71.125 66.007812 -67.394531 70.125 -59.9375 L 70.40625 -59.9375 C 76.238281 -67.394531 84.363281 -71.125 94.78125 -71.125 Z M 94.78125 -71.125 "/></g></g></g><g fill="#000000" fill-opacity="1"><g transform="translate(1002.484638, 225.655269)"><g><path d="M 55.34375 -69.96875 L 74.84375 -69.96875 L 37.140625 28.390625 L 17.921875 28.390625 L 30.25 -4.296875 L 2.4375 -69.96875 L 21.9375 -69.96875 L 39.140625 -26.671875 L 39.28125 -26.671875 Z M 55.34375 -69.96875 "/></g></g></g><g fill="#000000" fill-opacity="1"><g transform="translate(41.114162, 290.589052)"><g><path d="M 18.21875 -11.828125 L 18.21875 0 L 13.390625 0 L 13.390625 -11.921875 L -0.203125 -34.203125 L 5.03125 -34.203125 L 15.984375 -16.171875 L 26.96875 -34.203125 L 31.8125 -34.203125 Z M 18.21875 -11.828125 "/></g></g></g><g fill="#000000" fill-opacity="1"><g transform="translate(72.71954, 290.589052)"><g><path d="M 20.5625 0.390625 C 17.113281 0.390625 14.003906 -0.363281 11.234375 -1.875 C 8.460938 -3.394531 6.285156 -5.488281 4.703125 -8.15625 C 3.128906 -10.832031 2.34375 -13.8125 2.34375 -17.09375 C 2.34375 -20.382812 3.128906 -23.363281 4.703125 -26.03125 C 6.285156 -28.707031 8.460938 -30.800781 11.234375 -32.3125 C 14.003906 -33.832031 17.113281 -34.59375 20.5625 -34.59375 C 23.988281 -34.59375 27.082031 -33.832031 29.84375 -32.3125 C 32.613281 -30.800781 34.78125 -28.71875 36.34375 -26.0625 C 37.914062 -23.40625 38.703125 -20.414062 38.703125 -17.09375 C 38.703125 -13.769531 37.914062 -10.78125 36.34375 -8.125 C 34.78125 -5.476562 32.613281 -3.394531 29.84375 -1.875 C 27.082031 -0.363281 23.988281 0.390625 20.5625 0.390625 Z M 20.5625 -3.953125 C 23.070312 -3.953125 25.328125 -4.519531 27.328125 -5.65625 C 29.335938 -6.800781 30.921875 -8.375 32.078125 -10.375 C 33.234375 -12.382812 33.8125 -14.625 33.8125 -17.09375 C 33.8125 -19.570312 33.234375 -21.8125 32.078125 -23.8125 C 30.921875 -25.820312 29.335938 -27.394531 27.328125 -28.53125 C 25.328125 -29.675781 23.070312 -30.25 20.5625 -30.25 C 18.0625 -30.25 15.789062 -29.675781 13.75 -28.53125 C 11.71875 -27.394531 10.125 -25.820312 8.96875 -23.8125 C 7.8125 -21.8125 7.234375 -19.570312 7.234375 -17.09375 C 7.234375 -14.625 7.8125 -12.382812 8.96875 -10.375 C 10.125 -8.375 11.71875 -6.800781 13.75 -5.65625 C 15.789062 -4.519531 18.0625 -3.953125 20.5625 -3.953125 Z M 20.5625 -3.953125 "/></g></g></g><g fill="#000000" fill-opacity="1"><g transform="translate(113.752812, 290.589052)"><g><path d="M 19.296875 0.390625 C 14.734375 0.390625 11.179688 -0.910156 8.640625 -3.515625 C 6.109375 -6.117188 4.84375 -9.863281 4.84375 -14.75 L 4.84375 -34.203125 L 9.71875 -34.203125 L 9.71875 -14.953125 C 9.71875 -7.617188 12.925781 -3.953125 19.34375 -3.953125 C 22.46875 -3.953125 24.859375 -4.851562 26.515625 -6.65625 C 28.179688 -8.46875 29.015625 -11.234375 29.015625 -14.953125 L 29.015625 -34.203125 L 33.765625 -34.203125 L 33.765625 -14.75 C 33.765625 -9.832031 32.492188 -6.078125 29.953125 -3.484375 C 27.410156 -0.898438 23.859375 0.390625 19.296875 0.390625 Z M 19.296875 0.390625 "/></g></g></g><g fill="#000000" fill-opacity="1"><g transform="translate(152.392477, 290.589052)"><g><path d="M 28 0 L 20.625 -10.5 C 19.707031 -10.4375 18.988281 -10.40625 18.46875 -10.40625 L 10.015625 -10.40625 L 10.015625 0 L 5.125 0 L 5.125 -34.203125 L 18.46875 -34.203125 C 22.894531 -34.203125 26.378906 -33.140625 28.921875 -31.015625 C 31.460938 -28.898438 32.734375 -25.988281 32.734375 -22.28125 C 32.734375 -19.644531 32.082031 -17.394531 30.78125 -15.53125 C 29.476562 -13.675781 27.625 -12.328125 25.21875 -11.484375 L 33.328125 0 Z M 18.328125 -14.5625 C 21.421875 -14.5625 23.78125 -15.226562 25.40625 -16.5625 C 27.03125 -17.894531 27.84375 -19.800781 27.84375 -22.28125 C 27.84375 -24.757812 27.03125 -26.65625 25.40625 -27.96875 C 23.78125 -29.289062 21.421875 -29.953125 18.328125 -29.953125 L 10.015625 -29.953125 L 10.015625 -14.5625 Z M 18.328125 -14.5625 "/></g></g></g><g fill="#000000" fill-opacity="1"><g transform="translate(187.905798, 290.589052)"><g/></g></g><g fill="#000000" fill-opacity="1"><g transform="translate(201.046236, 290.589052)"><g><path d="M 20.421875 0.390625 C 17.003906 0.390625 13.914062 -0.363281 11.15625 -1.875 C 8.40625 -3.394531 6.25 -5.476562 4.6875 -8.125 C 3.125 -10.78125 2.34375 -13.769531 2.34375 -17.09375 C 2.34375 -20.414062 3.125 -23.40625 4.6875 -26.0625 C 6.25 -28.71875 8.414062 -30.800781 11.1875 -32.3125 C 13.957031 -33.832031 17.050781 -34.59375 20.46875 -34.59375 C 23.144531 -34.59375 25.585938 -34.144531 27.796875 -33.25 C 30.015625 -32.351562 31.90625 -31.023438 33.46875 -29.265625 L 30.296875 -26.1875 C 27.722656 -28.894531 24.515625 -30.25 20.671875 -30.25 C 18.128906 -30.25 15.832031 -29.675781 13.78125 -28.53125 C 11.726562 -27.394531 10.125 -25.820312 8.96875 -23.8125 C 7.8125 -21.8125 7.234375 -19.570312 7.234375 -17.09375 C 7.234375 -14.625 7.8125 -12.382812 8.96875 -10.375 C 10.125 -8.375 11.726562 -6.800781 13.78125 -5.65625 C 15.832031 -4.519531 18.128906 -3.953125 20.671875 -3.953125 C 24.484375 -3.953125 27.691406 -5.320312 30.296875 -8.0625 L 33.46875 -4.984375 C 31.90625 -3.222656 30.003906 -1.882812 27.765625 -0.96875 C 25.535156 -0.0625 23.085938 0.390625 20.421875 0.390625 Z M 20.421875 0.390625 "/></g></g></g><g fill="#000000" fill-opacity="1"><g transform="translate(236.364157, 290.589052)"><g><path d="M 26.921875 -8.546875 L 8.75 -8.546875 L 4.984375 0 L -0.046875 0 L 15.4375 -34.203125 L 20.28125 -34.203125 L 35.8125 0 L 30.6875 0 Z M 25.21875 -12.453125 L 17.828125 -29.21875 L 10.453125 -12.453125 Z M 25.21875 -12.453125 "/></g></g></g><g fill="#000000" fill-opacity="1"><g transform="translate(272.12174, 290.589052)"><g><path d="M 28 0 L 20.625 -10.5 C 19.707031 -10.4375 18.988281 -10.40625 18.46875 -10.40625 L 10.015625 -10.40625 L 10.015625 0 L 5.125 0 L 5.125 -34.203125 L 18.46875 -34.203125 C 22.894531 -34.203125 26.378906 -33.140625 28.921875 -31.015625 C 31.460938 -28.898438 32.734375 -25.988281 32.734375 -22.28125 C 32.734375 -19.644531 32.082031 -17.394531 30.78125 -15.53125 C 29.476562 -13.675781 27.625 -12.328125 25.21875 -11.484375 L 33.328125 0 Z M 18.328125 -14.5625 C 21.421875 -14.5625 23.78125 -15.226562 25.40625 -16.5625 C 27.03125 -17.894531 27.84375 -19.800781 27.84375 -22.28125 C 27.84375 -24.757812 27.03125 -26.65625 25.40625 -27.96875 C 23.78125 -29.289062 21.421875 -29.953125 18.328125 -29.953125 L 10.015625 -29.953125 L 10.015625 -14.5625 Z M 18.328125 -14.5625 "/></g></g></g><g fill="#000000" fill-opacity="1"><g transform="translate(307.63506, 290.589052)"><g><path d="M 29.953125 -4.25 L 29.953125 0 L 5.125 0 L 5.125 -34.203125 L 29.265625 -34.203125 L 29.265625 -29.953125 L 10.015625 -29.953125 L 10.015625 -19.453125 L 27.171875 -19.453125 L 27.171875 -15.296875 L 10.015625 -15.296875 L 10.015625 -4.25 Z M 29.953125 -4.25 "/></g></g></g><g fill="#000000" fill-opacity="1"><g transform="translate(340.363973, 290.589052)"><g><path d="M 29.953125 -4.25 L 29.953125 0 L 5.125 0 L 5.125 -34.203125 L 29.265625 -34.203125 L 29.265625 -29.953125 L 10.015625 -29.953125 L 10.015625 -19.453125 L 27.171875 -19.453125 L 27.171875 -15.296875 L 10.015625 -15.296875 L 10.015625 -4.25 Z M 29.953125 -4.25 "/></g></g></g><g fill="#000000" fill-opacity="1"><g transform="translate(373.092887, 290.589052)"><g><path d="M 28 0 L 20.625 -10.5 C 19.707031 -10.4375 18.988281 -10.40625 18.46875 -10.40625 L 10.015625 -10.40625 L 10.015625 0 L 5.125 0 L 5.125 -34.203125 L 18.46875 -34.203125 C 22.894531 -34.203125 26.378906 -33.140625 28.921875 -31.015625 C 31.460938 -28.898438 32.734375 -25.988281 32.734375 -22.28125 C 32.734375 -19.644531 32.082031 -17.394531 30.78125 -15.53125 C 29.476562 -13.675781 27.625 -12.328125 25.21875 -11.484375 L 33.328125 0 Z M 18.328125 -14.5625 C 21.421875 -14.5625 23.78125 -15.226562 25.40625 -16.5625 C 27.03125 -17.894531 27.84375 -19.800781 27.84375 -22.28125 C 27.84375 -24.757812 27.03125 -26.65625 25.40625 -27.96875 C 23.78125 -29.289062 21.421875 -29.953125 18.328125 -29.953125 L 10.015625 -29.953125 L 10.015625 -14.5625 Z M 18.328125 -14.5625 "/></g></g></g><g fill="#000000" fill-opacity="1"><g transform="translate(408.606207, 290.589052)"><g/></g></g><g fill="#000000" fill-opacity="1"><g transform="translate(421.746645, 290.589052)"><g><path d="M 28.140625 -17.734375 C 30.128906 -17.179688 31.691406 -16.179688 32.828125 -14.734375 C 33.972656 -13.285156 34.546875 -11.453125 34.546875 -9.234375 C 34.546875 -6.265625 33.425781 -3.984375 31.1875 -2.390625 C 28.957031 -0.796875 25.710938 0 21.453125 0 L 5.125 0 L 5.125 -34.203125 L 20.46875 -34.203125 C 24.375 -34.203125 27.394531 -33.421875 29.53125 -31.859375 C 31.664062 -30.296875 32.734375 -28.128906 32.734375 -25.359375 C 32.734375 -23.566406 32.316406 -22.019531 31.484375 -20.71875 C 30.660156 -19.414062 29.546875 -18.421875 28.140625 -17.734375 Z M 10.015625 -30.25 L 10.015625 -19.296875 L 20.03125 -19.296875 C 22.539062 -19.296875 24.46875 -19.757812 25.8125 -20.6875 C 27.164062 -21.613281 27.84375 -22.972656 27.84375 -24.765625 C 27.84375 -26.554688 27.164062 -27.914062 25.8125 -28.84375 C 24.46875 -29.78125 22.539062 -30.25 20.03125 -30.25 Z M 21.25 -3.953125 C 24.019531 -3.953125 26.101562 -4.40625 27.5 -5.3125 C 28.90625 -6.226562 29.609375 -7.664062 29.609375 -9.625 C 29.609375 -13.4375 26.820312 -15.34375 21.25 -15.34375 L 10.015625 -15.34375 L 10.015625 -3.953125 Z M 21.25 -3.953125 "/></g></g></g><g fill="#000000" fill-opacity="1"><g transform="translate(458.725438, 290.589052)"><g><path d="M 19.296875 0.390625 C 14.734375 0.390625 11.179688 -0.910156 8.640625 -3.515625 C 6.109375 -6.117188 4.84375 -9.863281 4.84375 -14.75 L 4.84375 -34.203125 L 9.71875 -34.203125 L 9.71875 -14.953125 C 9.71875 -7.617188 12.925781 -3.953125 19.34375 -3.953125 C 22.46875 -3.953125 24.859375 -4.851562 26.515625 -6.65625 C 28.179688 -8.46875 29.015625 -11.234375 29.015625 -14.953125 L 29.015625 -34.203125 L 33.765625 -34.203125 L 33.765625 -14.75 C 33.765625 -9.832031 32.492188 -6.078125 29.953125 -3.484375 C 27.410156 -0.898438 23.859375 0.390625 19.296875 0.390625 Z M 19.296875 0.390625 "/></g></g></g><g fill="#000000" fill-opacity="1"><g transform="translate(497.365103, 290.589052)"><g><path d="M 5.125 -34.203125 L 10.015625 -34.203125 L 10.015625 0 L 5.125 0 Z M 5.125 -34.203125 "/></g></g></g><g fill="#000000" fill-opacity="1"><g transform="translate(512.508349, 290.589052)"><g><path d="M 5.125 -34.203125 L 10.015625 -34.203125 L 10.015625 -4.25 L 28.53125 -4.25 L 28.53125 0 L 5.125 0 Z M 5.125 -34.203125 "/></g></g></g><g fill="#000000" fill-opacity="1"><g transform="translate(541.52472, 290.589052)"><g><path d="M 5.125 -34.203125 L 19.546875 -34.203125 C 23.160156 -34.203125 26.367188 -33.484375 29.171875 -32.046875 C 31.972656 -30.617188 34.144531 -28.609375 35.6875 -26.015625 C 37.238281 -23.429688 38.015625 -20.457031 38.015625 -17.09375 C 38.015625 -13.738281 37.238281 -10.765625 35.6875 -8.171875 C 34.144531 -5.585938 31.972656 -3.578125 29.171875 -2.140625 C 26.367188 -0.710938 23.160156 0 19.546875 0 L 5.125 0 Z M 19.25 -4.25 C 22.019531 -4.25 24.453125 -4.785156 26.546875 -5.859375 C 28.648438 -6.929688 30.269531 -8.4375 31.40625 -10.375 C 32.550781 -12.320312 33.125 -14.5625 33.125 -17.09375 C 33.125 -19.632812 32.550781 -21.875 31.40625 -23.8125 C 30.269531 -25.75 28.648438 -27.253906 26.546875 -28.328125 C 24.453125 -29.410156 22.019531 -29.953125 19.25 -29.953125 L 10.015625 -29.953125 L 10.015625 -4.25 Z M 19.25 -4.25 "/></g></g></g><g fill="#000000" fill-opacity="1"><g transform="translate(581.874119, 290.589052)"><g><path d="M 5.125 -34.203125 L 10.015625 -34.203125 L 10.015625 0 L 5.125 0 Z M 5.125 -34.203125 "/></g></g></g><g fill="#000000" fill-opacity="1"><g transform="translate(597.017366, 290.589052)"><g><path d="M 34.546875 -34.203125 L 34.546875 0 L 30.53125 0 L 10.015625 -25.5 L 10.015625 0 L 5.125 0 L 5.125 -34.203125 L 9.140625 -34.203125 L 29.65625 -8.703125 L 29.65625 -34.203125 Z M 34.546875 -34.203125 "/></g></g></g><g fill="#000000" fill-opacity="1"><g transform="translate(636.682841, 290.589052)"><g><path d="M 28.828125 -17.296875 L 33.515625 -17.296875 L 33.515625 -3.953125 C 31.828125 -2.554688 29.859375 -1.484375 27.609375 -0.734375 C 25.359375 0.015625 23.007812 0.390625 20.5625 0.390625 C 17.113281 0.390625 14.003906 -0.363281 11.234375 -1.875 C 8.460938 -3.394531 6.285156 -5.476562 4.703125 -8.125 C 3.128906 -10.78125 2.34375 -13.769531 2.34375 -17.09375 C 2.34375 -20.414062 3.128906 -23.410156 4.703125 -26.078125 C 6.285156 -28.753906 8.46875 -30.84375 11.25 -32.34375 C 14.039062 -33.84375 17.179688 -34.59375 20.671875 -34.59375 C 23.398438 -34.59375 25.878906 -34.144531 28.109375 -33.25 C 30.347656 -32.351562 32.25 -31.039062 33.8125 -29.3125 L 30.78125 -26.28125 C 28.039062 -28.925781 24.734375 -30.25 20.859375 -30.25 C 18.253906 -30.25 15.914062 -29.6875 13.84375 -28.5625 C 11.78125 -27.4375 10.160156 -25.867188 8.984375 -23.859375 C 7.816406 -21.859375 7.234375 -19.601562 7.234375 -17.09375 C 7.234375 -14.625 7.816406 -12.382812 8.984375 -10.375 C 10.160156 -8.375 11.78125 -6.800781 13.84375 -5.65625 C 15.914062 -4.519531 18.238281 -3.953125 20.8125 -3.953125 C 23.875 -3.953125 26.546875 -4.6875 28.828125 -6.15625 Z M 28.828125 -17.296875 "/></g></g></g><g fill="#000000" fill-opacity="1"><g transform="translate(674.394369, 290.589052)"><g/></g></g><g fill="#000000" fill-opacity="1"><g transform="translate(687.534807, 290.589052)"><g><path d="M 19.296875 0.390625 C 14.734375 0.390625 11.179688 -0.910156 8.640625 -3.515625 C 6.109375 -6.117188 4.84375 -9.863281 4.84375 -14.75 L 4.84375 -34.203125 L 9.71875 -34.203125 L 9.71875 -14.953125 C 9.71875 -7.617188 12.925781 -3.953125 19.34375 -3.953125 C 22.46875 -3.953125 24.859375 -4.851562 26.515625 -6.65625 C 28.179688 -8.46875 29.015625 -11.234375 29.015625 -14.953125 L 29.015625 -34.203125 L 33.765625 -34.203125 L 33.765625 -14.75 C 33.765625 -9.832031 32.492188 -6.078125 29.953125 -3.484375 C 27.410156 -0.898438 23.859375 0.390625 19.296875 0.390625 Z M 19.296875 0.390625 "/></g></g></g><g fill="#000000" fill-opacity="1"><g transform="translate(726.174472, 290.589052)"><g><path d="M 34.546875 -34.203125 L 34.546875 0 L 30.53125 0 L 10.015625 -25.5 L 10.015625 0 L 5.125 0 L 5.125 -34.203125 L 9.140625 -34.203125 L 29.65625 -8.703125 L 29.65625 -34.203125 Z M 34.546875 -34.203125 "/></g></g></g><g fill="#000000" fill-opacity="1"><g transform="translate(765.839947, 290.589052)"><g><path d="M 5.125 -34.203125 L 10.015625 -34.203125 L 10.015625 0 L 5.125 0 Z M 5.125 -34.203125 "/></g></g></g><g fill="#000000" fill-opacity="1"><g transform="translate(780.983194, 290.589052)"><g><path d="M 34.84375 -34.203125 L 19.84375 0 L 15 0 L -0.046875 -34.203125 L 5.234375 -34.203125 L 17.546875 -6.109375 L 29.953125 -34.203125 Z M 34.84375 -34.203125 "/></g></g></g><g fill="#000000" fill-opacity="1"><g transform="translate(815.763779, 290.589052)"><g><path d="M 29.953125 -4.25 L 29.953125 0 L 5.125 0 L 5.125 -34.203125 L 29.265625 -34.203125 L 29.265625 -29.953125 L 10.015625 -29.953125 L 10.015625 -19.453125 L 27.171875 -19.453125 L 27.171875 -15.296875 L 10.015625 -15.296875 L 10.015625 -4.25 Z M 29.953125 -4.25 "/></g></g></g><g fill="#000000" fill-opacity="1"><g transform="translate(848.492692, 290.589052)"><g><path d="M 28 0 L 20.625 -10.5 C 19.707031 -10.4375 18.988281 -10.40625 18.46875 -10.40625 L 10.015625 -10.40625 L 10.015625 0 L 5.125 0 L 5.125 -34.203125 L 18.46875 -34.203125 C 22.894531 -34.203125 26.378906 -33.140625 28.921875 -31.015625 C 31.460938 -28.898438 32.734375 -25.988281 32.734375 -22.28125 C 32.734375 -19.644531 32.082031 -17.394531 30.78125 -15.53125 C 29.476562 -13.675781 27.625 -12.328125 25.21875 -11.484375 L 33.328125 0 Z M 18.328125 -14.5625 C 21.421875 -14.5625 23.78125 -15.226562 25.40625 -16.5625 C 27.03125 -17.894531 27.84375 -19.800781 27.84375 -22.28125 C 27.84375 -24.757812 27.03125 -26.65625 25.40625 -27.96875 C 23.78125 -29.289062 21.421875 -29.953125 18.328125 -29.953125 L 10.015625 -29.953125 L 10.015625 -14.5625 Z M 18.328125 -14.5625 "/></g></g></g><g fill="#000000" fill-opacity="1"><g transform="translate(884.006012, 290.589052)"><g><path d="M 15.09375 0.390625 C 12.519531 0.390625 10.035156 -0.00390625 7.640625 -0.796875 C 5.253906 -1.597656 3.375 -2.632812 2 -3.90625 L 3.8125 -7.71875 C 5.113281 -6.539062 6.78125 -5.585938 8.8125 -4.859375 C 10.851562 -4.128906 12.945312 -3.765625 15.09375 -3.765625 C 17.925781 -3.765625 20.039062 -4.242188 21.4375 -5.203125 C 22.84375 -6.160156 23.546875 -7.4375 23.546875 -9.03125 C 23.546875 -10.207031 23.160156 -11.160156 22.390625 -11.890625 C 21.628906 -12.628906 20.6875 -13.191406 19.5625 -13.578125 C 18.4375 -13.972656 16.847656 -14.414062 14.796875 -14.90625 C 12.222656 -15.519531 10.144531 -16.132812 8.5625 -16.75 C 6.988281 -17.375 5.640625 -18.328125 4.515625 -19.609375 C 3.390625 -20.898438 2.828125 -22.640625 2.828125 -24.828125 C 2.828125 -26.648438 3.304688 -28.289062 4.265625 -29.75 C 5.234375 -31.21875 6.691406 -32.390625 8.640625 -33.265625 C 10.597656 -34.148438 13.023438 -34.59375 15.921875 -34.59375 C 17.941406 -34.59375 19.929688 -34.332031 21.890625 -33.8125 C 23.847656 -33.289062 25.523438 -32.539062 26.921875 -31.5625 L 25.3125 -27.65625 C 23.875 -28.5625 22.335938 -29.25 20.703125 -29.71875 C 19.078125 -30.195312 17.484375 -30.4375 15.921875 -30.4375 C 13.160156 -30.4375 11.085938 -29.929688 9.703125 -28.921875 C 8.316406 -27.910156 7.625 -26.609375 7.625 -25.015625 C 7.625 -23.835938 8.015625 -22.882812 8.796875 -22.15625 C 9.578125 -21.425781 10.546875 -20.859375 11.703125 -20.453125 C 12.859375 -20.046875 14.429688 -19.613281 16.421875 -19.15625 C 18.992188 -18.53125 21.0625 -17.910156 22.625 -17.296875 C 24.1875 -16.679688 25.53125 -15.738281 26.65625 -14.46875 C 27.78125 -13.195312 28.34375 -11.484375 28.34375 -9.328125 C 28.34375 -7.535156 27.851562 -5.898438 26.875 -4.421875 C 25.894531 -2.941406 24.410156 -1.769531 22.421875 -0.90625 C 20.441406 -0.0390625 18 0.390625 15.09375 0.390625 Z M 15.09375 0.390625 "/></g></g></g><g fill="#000000" fill-opacity="1"><g transform="translate(914.341368, 290.589052)"><g><path d="M 5.125 -34.203125 L 10.015625 -34.203125 L 10.015625 0 L 5.125 0 Z M 5.125 -34.203125 "/></g></g></g><g fill="#000000" fill-opacity="1"><g transform="translate(929.484615, 290.589052)"><g><path d="M 11.921875 -29.953125 L 0.203125 -29.953125 L 0.203125 -34.203125 L 28.484375 -34.203125 L 28.484375 -29.953125 L 16.765625 -29.953125 L 16.765625 0 L 11.921875 0 Z M 11.921875 -29.953125 "/></g></g></g><g fill="#000000" fill-opacity="1"><g transform="translate(958.159048, 290.589052)"><g><path d="M 18.21875 -11.828125 L 18.21875 0 L 13.390625 0 L 13.390625 -11.921875 L -0.203125 -34.203125 L 5.03125 -34.203125 L 15.984375 -16.171875 L 26.96875 -34.203125 L 31.8125 -34.203125 Z M 18.21875 -11.828125 "/></g></g></g></svg>